#usda 1.0
(
    defaultPrim = "World"
    subLayers = [@/data/users/ali/vla_wam/external/RoboLab-pi05-v3-0aef241/assets/scenes/rubiks_cube_banana_bowl.usda@]
)

over "World" {
    over "bowl" {
        double3 xformOp:translate = (0.45, 0.13, 0.16)
        quatf xformOp:orient = (0.9999999403953552, -5.8753543271450326e-05, -0.00032362030469812453, -0.00010501052747713402)
        uniform token[] xformOpOrder = ["xformOp:translate", "xformOp:orient", "xformOp:scale"]
    }
    over "rubiks_cube" {
        double3 xformOp:translate = (0.30016965508460997, -0.12892264723777772, 0.1624353638291359)
        quatf xformOp:orient = (0.9999990463256836, -0.0009071399690583348, 0.001037940033711493, 8.44117093947716e-05)
        uniform token[] xformOpOrder = ["xformOp:translate", "xformOp:orient", "xformOp:scale"]
    }
    over "banana" {
        double3 xformOp:translate = (0.8, 0.39, 0.06946864724159241)
        quatf xformOp:orient = (0.9999781250953674, -0.0026648887433111668, -0.006051987875252962, 0.0001454032608307898)
        uniform token[] xformOpOrder = ["xformOp:translate", "xformOp:orient", "xformOp:scale"]
    }
    def Xform "height_reference_support" (
        prepend apiSchemas = ["PhysicsRigidBodyAPI"]
    )
    {
        bool physics:kinematicEnabled = true
        double3 xformOp:translate = (0.45, 0.13, 0.09122701168060303)
        uniform token[] xformOpOrder = ["xformOp:translate"]
        def Cube "geometry" (
            prepend apiSchemas = ["PhysicsCollisionAPI"]
        ) {
            double size = 1
            double3 xformOp:scale = (0.16, 0.16, 0.08245257645845414)
            uniform token[] xformOpOrder = ["xformOp:scale"]
            color3f[] primvars:displayColor = [(0.2, 0.45, 0.95)]
        }
    }
    def Xform "height_neutral_cube_support" (
        prepend apiSchemas = ["PhysicsRigidBodyAPI"]
    )
    {
        bool physics:kinematicEnabled = true
        double3 xformOp:translate = (0.29, -0.1, 0.09045305654406548)
        uniform token[] xformOpOrder = ["xformOp:translate"]
        def Cube "geometry" (
            prepend apiSchemas = ["PhysicsCollisionAPI"]
        ) {
            double size = 1
            double3 xformOp:scale = (0.1, 0.1, 0.08090466618537903)
            uniform token[] xformOpOrder = ["xformOp:scale"]
            color3f[] primvars:displayColor = [(0.35, 0.85, 0.45)]
        }
    }
    def Xform "height_lower_support" (
        prepend apiSchemas = ["PhysicsRigidBodyAPI"]
    )
    {
        bool physics:kinematicEnabled = true
        double3 xformOp:translate = (0.65, -0.23, 0.07045305654406547)
        uniform token[] xformOpOrder = ["xformOp:translate"]
        def Cube "geometry" (
            prepend apiSchemas = ["PhysicsCollisionAPI"]
        ) {
            double size = 1
            double3 xformOp:scale = (0.14, 0.14, 0.040904666185379024)
            uniform token[] xformOpOrder = ["xformOp:scale"]
            color3f[] primvars:displayColor = [(0.2, 0.45, 0.95)]
        }
    }
    def Xform "height_upper_support" (
        prepend apiSchemas = ["PhysicsRigidBodyAPI"]
    )
    {
        bool physics:kinematicEnabled = true
        double3 xformOp:translate = (0.65, 0.23, 0.11045305654406548)
        uniform token[] xformOpOrder = ["xformOp:translate"]
        def Cube "geometry" (
            prepend apiSchemas = ["PhysicsCollisionAPI"]
        ) {
            double size = 1
            double3 xformOp:scale = (0.14, 0.14, 0.12090466618537904)
            uniform token[] xformOpOrder = ["xformOp:scale"]
            color3f[] primvars:displayColor = [(0.95, 0.4, 0.2)]
        }
    }
}
