<svg xmlns="http://www.w3.org/2000/svg" width="1200" height="1200" viewBox="0 0 1200 1200"><rect width="100%" height="100%" fill="#F8FAFC"/><style>text{font-family:Inter,Arial,sans-serif;fill:#172033}.title{font-size:30px;font-weight:700}.subtitle{font-size:14px;fill:#526076}.panel{font-size:20px;font-weight:700}.model{font-size:15px;font-weight:650}.small{font-size:12px;fill:#526076}.metric{font-size:13px;font-weight:650}.badge{font-size:11px;font-weight:700;fill:white}.foot{font-size:11px;fill:#64748B}</style><text class="title" x="600.0" y="58" text-anchor="middle">Direct-command physical steerability evidence</text><text class="subtitle" x="600.0" y="85" text-anchor="middle">Arena-specific success; paired endpoint and action sensitivity shown separately</text><rect x="45" y="112" width="1110" height="392" rx="18" fill="white" stroke="#D8E0EA"/><text class="panel" x="69" y="146">DROID / RoboLab</text><text class="small" x="1131" y="145" text-anchor="end">denominators stay within this panel</text><text class="small" x="577.8" y="174" text-anchor="middle">REQUESTED SUCCESS</text><text class="small" x="844.1999999999999" y="174" text-anchor="middle">ENDPOINT</text><text class="small" x="999.6" y="174" text-anchor="middle">ACTIONS</text><rect x="67" y="215.66666666666666" width="40" height="18" rx="9" fill="#2563EB"/><text class="badge" x="87" y="228.66666666666666" text-anchor="middle">VLA</text><text class="model" x="67" y="246.66666666666666">π0-FAST DROID</text><text class="small" x="67" y="263.66666666666663">valid n=20</text><rect x="422.40000000000003" y="223.66666666666666" width="310.8" height="8" rx="4" fill="#E7ECF2"/><rect x="422.40000000000003" y="223.66666666666666" width="31.08" height="8" rx="4" fill="#0F766E"/><text class="small" x="415.40000000000003" y="230.66666666666666" text-anchor="end">L</text><text class="metric" x="741.2" y="231.66666666666666">1/10</text><rect x="422.40000000000003" y="243.66666666666666" width="310.8" height="8" rx="4" fill="#E7ECF2"/><rect x="422.40000000000003" y="243.66666666666666" width="310.80" height="8" rx="4" fill="#7C3AED"/><text class="small" x="415.40000000000003" y="250.66666666666666" text-anchor="end">R</text><text class="metric" x="741.2" y="251.66666666666666">10/10</text><rect x="807.1999999999999" y="221.66666666666666" width="74" height="36" rx="10" fill="#ECFDF5" stroke="#D8E0EA"/><text class="metric" x="844.1999999999999" y="244.66666666666666" text-anchor="middle">10/10</text><rect x="962.6" y="221.66666666666666" width="74" height="36" rx="10" fill="#ECFDF5" stroke="#D8E0EA"/><text class="metric" x="999.6" y="244.66666666666666" text-anchor="middle">10/10</text><text class="small" x="1135" y="243.66666666666666" text-anchor="end">invalid 0</text><line x1="65" x2="1135" y1="291.3333333333333" y2="291.3333333333333" stroke="#EEF2F6"/><rect x="67" y="319.0" width="40" height="18" rx="9" fill="#2563EB"/><text class="badge" x="87" y="332.0" text-anchor="middle">VLA</text><text class="model" x="67" y="350.0">GR00T N1.7 DROID</text><text class="small" x="67" y="367.0">valid n=6</text><rect x="422.40000000000003" y="327.0" width="310.8" height="8" rx="4" fill="#E7ECF2"/><rect x="422.40000000000003" y="327.0" width="0.00" height="8" rx="4" fill="#0F766E"/><text class="small" x="415.40000000000003" y="334.0" text-anchor="end">L</text><text class="metric" x="741.2" y="335.0">0/3</text><rect x="422.40000000000003" y="347.0" width="310.8" height="8" rx="4" fill="#E7ECF2"/><rect x="422.40000000000003" y="347.0" width="0.00" height="8" rx="4" fill="#7C3AED"/><text class="small" x="415.40000000000003" y="354.0" text-anchor="end">R</text><text class="metric" x="741.2" y="355.0">0/3</text><rect x="807.1999999999999" y="325.0" width="74" height="36" rx="10" fill="#ECFDF5" stroke="#D8E0EA"/><text class="metric" x="844.1999999999999" y="348.0" text-anchor="middle">3/3</text><rect x="962.6" y="325.0" width="74" height="36" rx="10" fill="#ECFDF5" stroke="#D8E0EA"/><text class="metric" x="999.6" y="348.0" text-anchor="middle">3/3</text><text class="small" x="1135" y="347.0" text-anchor="end">invalid 5</text><line x1="65" x2="1135" y1="394.66666666666663" y2="394.66666666666663" stroke="#EEF2F6"/><rect x="67" y="422.3333333333333" width="40" height="18" rx="9" fill="#EA580C"/><text class="badge" x="87" y="435.3333333333333" text-anchor="middle">WAM</text><text class="model" x="67" y="453.3333333333333">Cosmos3 Edge DROID</text><text class="small" x="67" y="470.3333333333333">valid n=6</text><rect x="422.40000000000003" y="430.3333333333333" width="310.8" height="8" rx="4" fill="#E7ECF2"/><rect x="422.40000000000003" y="430.3333333333333" width="310.80" height="8" rx="4" fill="#0F766E"/><text class="small" x="415.40000000000003" y="437.3333333333333" text-anchor="end">L</text><text class="metric" x="741.2" y="438.3333333333333">3/3</text><rect x="422.40000000000003" y="450.3333333333333" width="310.8" height="8" rx="4" fill="#E7ECF2"/><rect x="422.40000000000003" y="450.3333333333333" width="310.80" height="8" rx="4" fill="#7C3AED"/><text class="small" x="415.40000000000003" y="457.3333333333333" text-anchor="end">R</text><text class="metric" x="741.2" y="458.3333333333333">3/3</text><rect x="807.1999999999999" y="428.3333333333333" width="74" height="36" rx="10" fill="#ECFDF5" stroke="#D8E0EA"/><text class="metric" x="844.1999999999999" y="451.3333333333333" text-anchor="middle">3/3</text><rect x="962.6" y="428.3333333333333" width="74" height="36" rx="10" fill="#ECFDF5" stroke="#D8E0EA"/><text class="metric" x="999.6" y="451.3333333333333" text-anchor="middle">3/3</text><text class="small" x="1135" y="450.3333333333333" text-anchor="end">invalid 8</text><rect x="45" y="530" width="1110" height="575" rx="18" fill="white" stroke="#D8E0EA"/><text class="panel" x="69" y="564">RoboTwin place-A-relative-to-B</text><text class="small" x="1131" y="563" text-anchor="end">denominators stay within this panel</text><text class="small" x="577.8" y="592" text-anchor="middle">REQUESTED SUCCESS</text><text class="small" x="844.1999999999999" y="592" text-anchor="middle">ENDPOINT</text><text class="small" x="999.6" y="592" text-anchor="middle">ACTIONS</text><rect x="67" y="631.3" width="40" height="18" rx="9" fill="#2563EB"/><text class="badge" x="87" y="644.3" text-anchor="middle">VLA</text><text class="model" x="67" y="662.3">LingBot-VLA 4B</text><text class="small" x="67" y="679.3">valid n=6</text><rect x="422.40000000000003" y="639.3" width="310.8" height="8" rx="4" fill="#E7ECF2"/><rect x="422.40000000000003" y="639.3" width="103.60" height="8" rx="4" fill="#0F766E"/><text class="small" x="415.40000000000003" y="646.3" text-anchor="end">L</text><text class="metric" x="741.2" y="647.3">1/3</text><rect x="422.40000000000003" y="659.3" width="310.8" height="8" rx="4" fill="#E7ECF2"/><rect x="422.40000000000003" y="659.3" width="0.00" height="8" rx="4" fill="#7C3AED"/><text class="small" x="415.40000000000003" y="666.3" text-anchor="end">R</text><text class="metric" x="741.2" y="667.3">0/3</text><rect x="807.1999999999999" y="637.3" width="74" height="36" rx="10" fill="#ECFDF5" stroke="#D8E0EA"/><text class="metric" x="844.1999999999999" y="660.3" text-anchor="middle">2/3</text><rect x="962.6" y="637.3" width="74" height="36" rx="10" fill="#F1F5F9" stroke="#D8E0EA"/><text class="metric" x="999.6" y="660.3" text-anchor="middle">NR</text><text class="small" x="1135" y="659.3" text-anchor="end">invalid 3</text><line x1="65" x2="1135" y1="704.6" y2="704.6" stroke="#EEF2F6"/><rect x="67" y="729.9" width="40" height="18" rx="9" fill="#EA580C"/><text class="badge" x="87" y="742.9" text-anchor="middle">WAM</text><text class="model" x="67" y="760.9">Efficient-WAM-RT</text><text class="small" x="67" y="777.9">valid n=14</text><rect x="422.40000000000003" y="737.9" width="310.8" height="8" rx="4" fill="#E7ECF2"/><rect x="422.40000000000003" y="737.9" width="133.20" height="8" rx="4" fill="#0F766E"/><text class="small" x="415.40000000000003" y="744.9" text-anchor="end">L</text><text class="metric" x="741.2" y="745.9">3/7</text><rect x="422.40000000000003" y="757.9" width="310.8" height="8" rx="4" fill="#E7ECF2"/><rect x="422.40000000000003" y="757.9" width="88.80" height="8" rx="4" fill="#7C3AED"/><text class="small" x="415.40000000000003" y="764.9" text-anchor="end">R</text><text class="metric" x="741.2" y="765.9">2/7</text><rect x="807.1999999999999" y="735.9" width="74" height="36" rx="10" fill="#ECFDF5" stroke="#D8E0EA"/><text class="metric" x="844.1999999999999" y="758.9" text-anchor="middle">6/7</text><rect x="962.6" y="735.9" width="74" height="36" rx="10" fill="#ECFDF5" stroke="#D8E0EA"/><text class="metric" x="999.6" y="758.9" text-anchor="middle">7/7</text><text class="small" x="1135" y="757.9" text-anchor="end">invalid 4</text><line x1="65" x2="1135" y1="803.2" y2="803.2" stroke="#EEF2F6"/><rect x="67" y="828.5" width="40" height="18" rx="9" fill="#EA580C"/><text class="badge" x="87" y="841.5" text-anchor="middle">WAM</text><text class="model" x="67" y="859.5">FastWAM</text><text class="small" x="67" y="876.5">valid n=14</text><rect x="422.40000000000003" y="836.5" width="310.8" height="8" rx="4" fill="#E7ECF2"/><rect x="422.40000000000003" y="836.5" width="44.40" height="8" rx="4" fill="#0F766E"/><text class="small" x="415.40000000000003" y="843.5" text-anchor="end">L</text><text class="metric" x="741.2" y="844.5">1/7</text><rect x="422.40000000000003" y="856.5" width="310.8" height="8" rx="4" fill="#E7ECF2"/><rect x="422.40000000000003" y="856.5" width="44.40" height="8" rx="4" fill="#7C3AED"/><text class="small" x="415.40000000000003" y="863.5" text-anchor="end">R</text><text class="metric" x="741.2" y="864.5">1/7</text><rect x="807.1999999999999" y="834.5" width="74" height="36" rx="10" fill="#ECFDF5" stroke="#D8E0EA"/><text class="metric" x="844.1999999999999" y="857.5" text-anchor="middle">3/7</text><rect x="962.6" y="834.5" width="74" height="36" rx="10" fill="#ECFDF5" stroke="#D8E0EA"/><text class="metric" x="999.6" y="857.5" text-anchor="middle">7/7</text><text class="small" x="1135" y="856.5" text-anchor="end">invalid 18</text><line x1="65" x2="1135" y1="901.8" y2="901.8" stroke="#EEF2F6"/><rect x="67" y="927.0999999999999" width="40" height="18" rx="9" fill="#EA580C"/><text class="badge" x="87" y="940.0999999999999" text-anchor="middle">WAM</text><text class="model" x="67" y="958.0999999999999">LingBot-VA</text><text class="small" x="67" y="975.0999999999999">valid n=14</text><rect x="422.40000000000003" y="935.0999999999999" width="310.8" height="8" rx="4" fill="#E7ECF2"/><rect x="422.40000000000003" y="935.0999999999999" width="133.20" height="8" rx="4" fill="#0F766E"/><text class="small" x="415.40000000000003" y="942.0999999999999" text-anchor="end">L</text><text class="metric" x="741.2" y="943.0999999999999">3/7</text><rect x="422.40000000000003" y="955.0999999999999" width="310.8" height="8" rx="4" fill="#E7ECF2"/><rect x="422.40000000000003" y="955.0999999999999" width="177.60" height="8" rx="4" fill="#7C3AED"/><text class="small" x="415.40000000000003" y="962.0999999999999" text-anchor="end">R</text><text class="metric" x="741.2" y="963.0999999999999">4/7</text><rect x="807.1999999999999" y="933.0999999999999" width="74" height="36" rx="10" fill="#ECFDF5" stroke="#D8E0EA"/><text class="metric" x="844.1999999999999" y="956.0999999999999" text-anchor="middle">6/7</text><rect x="962.6" y="933.0999999999999" width="74" height="36" rx="10" fill="#ECFDF5" stroke="#D8E0EA"/><text class="metric" x="999.6" y="956.0999999999999" text-anchor="middle">7/7</text><text class="small" x="1135" y="955.0999999999999" text-anchor="end">invalid 5</text><line x1="65" x2="1135" y1="1000.4000000000001" y2="1000.4000000000001" stroke="#EEF2F6"/><rect x="67" y="1025.7" width="40" height="18" rx="9" fill="#EA580C"/><text class="badge" x="87" y="1038.7" text-anchor="middle">WAM</text><text class="model" x="67" y="1056.7">Light-WAM</text><text class="small" x="67" y="1073.7">valid n=6</text><rect x="422.40000000000003" y="1033.7" width="310.8" height="8" rx="4" fill="#E7ECF2"/><rect x="422.40000000000003" y="1033.7" width="103.60" height="8" rx="4" fill="#0F766E"/><text class="small" x="415.40000000000003" y="1040.7" text-anchor="end">L</text><text class="metric" x="741.2" y="1041.7">1/3</text><rect x="422.40000000000003" y="1053.7" width="310.8" height="8" rx="4" fill="#E7ECF2"/><rect x="422.40000000000003" y="1053.7" width="0.00" height="8" rx="4" fill="#7C3AED"/><text class="small" x="415.40000000000003" y="1060.7" text-anchor="end">R</text><text class="metric" x="741.2" y="1061.7">0/3</text><rect x="807.1999999999999" y="1031.7" width="74" height="36" rx="10" fill="#ECFDF5" stroke="#D8E0EA"/><text class="metric" x="844.1999999999999" y="1054.7" text-anchor="middle">1/3</text><rect x="962.6" y="1031.7" width="74" height="36" rx="10" fill="#ECFDF5" stroke="#D8E0EA"/><text class="metric" x="999.6" y="1054.7" text-anchor="middle">3/3</text><text class="small" x="1135" y="1053.7" text-anchor="end">invalid 6</text><text class="foot" x="600.0" y="1140" text-anchor="middle">LEFT/RIGHT = requested-relation success · ENDPOINT = aligned paired final ordering · ACTIONS = distinct paired traces · NR = not reported</text><text class="foot" x="600.0" y="1160" text-anchor="middle">Invalid setup/partial attempts are excluded from valid n · source set 3a2395c5bf0265e9… · evidence a7bed6e4</text></svg>
